<svg xmlns="http://www.w3.org/2000/svg" width="66" height="66" viewBox="0 0 66 66">
  <g id="Group_1325" data-name="Group 1325" transform="translate(-1463 -1009)">
    <circle id="Ellipse_96" data-name="Ellipse 96" cx="33" cy="33" r="33" transform="translate(1463 1009)" fill="#30d158"/>
    <path id="Path_15132" data-name="Path 15132" d="M38.244,32.462a10.124,10.124,0,0,1-9,6.167c-.492,0-8.162.407-19.186-10.051C1.188,20.162.1,11.112.009,9.392-.082,7.717.4,3.516,6.177.394,6.893.007,8.313-.164,8.679.2c.163.163,5.014,8.145,5.141,8.41a1.784,1.784,0,0,1,.191.779,2.269,2.269,0,0,1-.78,1.367,13.287,13.287,0,0,1-1.7,1.5,16.51,16.51,0,0,0-1.7,1.449,2.083,2.083,0,0,0-.779,1.258c.035.851.733,3.9,6.048,8.571s7.876,5.987,8.122,6.078a1.85,1.85,0,0,0,.615.136,2.082,2.082,0,0,0,1.258-.779c.51-.52,2.226-2.872,2.773-3.392a2.271,2.271,0,0,1,1.368-.779,1.782,1.782,0,0,1,.779.191c.264.128,8.257,4.8,8.41,4.961.415.425.122,1.752-.191,2.5" transform="translate(1477 1023)" fill="#fff"/>
  </g>
</svg>
