<svg xmlns="http://www.w3.org/2000/svg" width="66" height="66" viewBox="0 0 66 66">
  <g id="Group_1323" data-name="Group 1323" transform="translate(-736 -1114)">
    <circle id="Ellipse_96" data-name="Ellipse 96" cx="33" cy="33" r="33" transform="translate(736 1114)" fill="#ff1f38"/>
    <path id="Path_15132" data-name="Path 15132" d="M38.406,32.6a10.167,10.167,0,0,1-9.036,6.193c-.495,0-8.2.408-19.267-10.093C1.193,20.247.1,11.159.009,9.432-.083,7.75.4,3.531,6.2.4,6.922.007,8.348-.165,8.716.2c.163.163,5.035,8.18,5.163,8.445a1.792,1.792,0,0,1,.192.783,2.279,2.279,0,0,1-.783,1.373,13.343,13.343,0,0,1-1.7,1.51,16.58,16.58,0,0,0-1.7,1.456A2.091,2.091,0,0,0,9.1,15.034c.035.855.736,3.917,6.073,8.607s7.909,6.012,8.157,6.1a1.857,1.857,0,0,0,.618.137,2.091,2.091,0,0,0,1.264-.782c.512-.522,2.236-2.884,2.785-3.406a2.281,2.281,0,0,1,1.374-.782,1.789,1.789,0,0,1,.782.192c.266.128,8.292,4.825,8.446,4.982.416.427.122,1.759-.192,2.514" transform="translate(796.369 1149.681) rotate(135)" fill="#fff"/>
  </g>
</svg>
