<svg xmlns="http://www.w3.org/2000/svg" xmlns:xlink="http://www.w3.org/1999/xlink" width="71" height="71" viewBox="0 0 71 71">
  <defs>
    <filter id="Ellipse_74" x="0" y="0" width="71" height="71" filterUnits="userSpaceOnUse">
      <feOffset dy="3" input="SourceAlpha"/>
      <feGaussianBlur stdDeviation="3" result="blur"/>
      <feFlood flood-opacity="0.161"/>
      <feComposite operator="in" in2="blur"/>
      <feComposite in="SourceGraphic"/>
    </filter>
    <filter id="Subtraction_3" x="0" y="26" width="71" height="45" filterUnits="userSpaceOnUse">
      <feOffset dy="3" input="SourceAlpha"/>
      <feGaussianBlur stdDeviation="3" result="blur-2"/>
      <feFlood flood-opacity="0.161"/>
      <feComposite operator="in" in2="blur-2"/>
      <feComposite in="SourceGraphic"/>
    </filter>
  </defs>
  <g id="Group_1101" data-name="Group 1101" transform="translate(-12112 -4215)">
    <g id="Group_1097" data-name="Group 1097">
      <g transform="matrix(1, 0, 0, 1, 12112, 4215)" filter="url(#Ellipse_74)">
        <circle id="Ellipse_74-2" data-name="Ellipse 74" cx="26.5" cy="26.5" r="26.5" transform="translate(9 6)" fill="#d3396d"/>
      </g>
      <g transform="matrix(1, 0, 0, 1, 12112, 4215)" filter="url(#Subtraction_3)">
        <path id="Subtraction_3-2" data-name="Subtraction 3" d="M61,27H8c0-.166,0-.335,0-.5a26.5,26.5,0,1,1,53,0c0,.166,0,.334,0,.5Z" transform="translate(70 59) rotate(180)" fill="#ec407a"/>
      </g>
      <g id="Group_1091" data-name="Group 1091" transform="translate(760 -1613.5)">
        <path id="Path_7869" data-name="Path 7869" d="M9.139,10.88a.435.435,0,0,0-.439.439v1.054a2.586,2.586,0,0,1,.452-.04h2.3a.319.319,0,0,0,.29-.184v-.83a.435.435,0,0,0-.439-.439Z" transform="translate(11369.925 5842.089)" fill="#fff"/>
        <path id="Path_7870" data-name="Path 7870" d="M24.072,22.62a4.642,4.642,0,1,0,4.642,4.642A4.647,4.647,0,0,0,24.072,22.62Zm0,7.387a2.745,2.745,0,1,1,2.745-2.745A2.746,2.746,0,0,1,24.072,30.007Z" transform="translate(11363.908 5835.506)" fill="#fff"/>
        <path id="Path_7871" data-name="Path 7871" d="M24.883,12.612h-2.3a1.194,1.194,0,0,1-1.1-.729l-.343-.808A2.071,2.071,0,0,0,19.23,9.81h-6.5a2.071,2.071,0,0,0-1.911,1.265l-.343.808a1.2,1.2,0,0,1-1.1.729h-2.3A2.079,2.079,0,0,0,5,14.69V25.467a2.079,2.079,0,0,0,2.077,2.077H24.883a2.079,2.079,0,0,0,2.077-2.077V14.69A2.079,2.079,0,0,0,24.883,12.612Zm-10.769-.5h3.733a.439.439,0,1,1,0,.878H14.113a.439.439,0,1,1,0-.878ZM15.98,25.6A5.521,5.521,0,1,1,21.5,20.078,5.528,5.528,0,0,1,15.98,25.6Z" transform="translate(11372 5842.69)" fill="#fff"/>
        <circle id="Ellipse_78" data-name="Ellipse 78" cx="1.867" cy="1.867" r="1.867" transform="translate(11386.113 5860.902)" fill="#fff"/>
      </g>
    </g>
  </g>
</svg>
