<svg xmlns="http://www.w3.org/2000/svg" xmlns:xlink="http://www.w3.org/1999/xlink" width="71" height="71" viewBox="0 0 71 71">
  <defs>
    <filter id="Ellipse_66" x="0" y="0" width="71" height="71" filterUnits="userSpaceOnUse">
      <feOffset dy="3" input="SourceAlpha"/>
      <feGaussianBlur stdDeviation="3" result="blur"/>
      <feFlood flood-opacity="0.161"/>
      <feComposite operator="in" in2="blur"/>
      <feComposite in="SourceGraphic"/>
    </filter>
    <filter id="Subtraction_2" x="0" y="26" width="71" height="45" filterUnits="userSpaceOnUse">
      <feOffset dy="3" input="SourceAlpha"/>
      <feGaussianBlur stdDeviation="3" result="blur-2"/>
      <feFlood flood-opacity="0.161"/>
      <feComposite operator="in" in2="blur-2"/>
      <feComposite in="SourceGraphic"/>
    </filter>
  </defs>
  <g id="Group_1100" data-name="Group 1100" transform="translate(-12112 -4144)">
    <g transform="matrix(1, 0, 0, 1, 12112, 4144)" filter="url(#Ellipse_66)">
      <circle id="Ellipse_66-2" data-name="Ellipse 66" cx="26.5" cy="26.5" r="26.5" transform="translate(9 6)" fill="#5157ae"/>
    </g>
    <g transform="matrix(1, 0, 0, 1, 12112, 4144)" filter="url(#Subtraction_2)">
      <path id="Subtraction_2-2" data-name="Subtraction 2" d="M61,27H8c0-.166,0-.335,0-.5a26.5,26.5,0,1,1,53,0c0,.166,0,.334,0,.5Z" transform="translate(70 59) rotate(180)" fill="#5f66cd"/>
    </g>
    <g id="Group_1090" data-name="Group 1090" transform="translate(846.813 -1578.604)">
      <path id="Path_7867" data-name="Path 7867" d="M11,27.1a.45.45,0,0,0,.449.449H27.614a.45.45,0,0,0,.449-.449V6.449A.45.45,0,0,0,27.614,6H17v5.388a.45.45,0,0,1-.449.449H11Zm7.4-11.226h5.86a.449.449,0,1,1,0,.9H18.4a.449.449,0,1,1,0-.9Zm0,3.143h5.86a.449.449,0,0,1,0,.9H18.4a.449.449,0,0,1,0-.9Zm0,3.143h5.86a.449.449,0,0,1,0,.9H18.4a.449.449,0,0,1,0-.9ZM14.8,15.9h1.316a.449.449,0,1,1,0,.9H14.8a.449.449,0,0,1,0-.9Zm0,3.125h1.316a.449.449,0,0,1,0,.9H14.8a.449.449,0,0,1,0-.9Zm0,3.143h1.316a.449.449,0,1,1,0,.9H14.8a.449.449,0,0,1,0-.9Z" transform="translate(11281.187 5738.604)" fill="#fff"/>
      <path id="Path_7868" data-name="Path 7868" d="M11.59,11.172h4.751V6.58Z" transform="translate(11280.856 5738.279)" fill="#fff"/>
    </g>
  </g>
</svg>
