<svg xmlns="http://www.w3.org/2000/svg" width="40.474" height="40.474" viewBox="0 0 40.474 40.474">
  <path id="Subtraction_1" data-name="Subtraction 1" d="M20.237,40.474A20.237,20.237,0,0,1,5.927,5.927,20.237,20.237,0,0,1,34.546,34.546,20.1,20.1,0,0,1,20.237,40.474ZM10.336,18.1a2.226,2.226,0,0,0-2.227,2.225,2.246,2.246,0,0,0,.649,1.58,2.211,2.211,0,0,0,1.571.657h7.778v7.756a2.22,2.22,0,1,0,4.439,0V22.561h7.768a2.232,2.232,0,0,0,2.224-2.233,2.231,2.231,0,0,0-2.224-2.233H22.547V10.332a2.22,2.22,0,1,0-4.439,0V18.1Z" fill="#707070"/>
</svg>
