<svg xmlns="http://www.w3.org/2000/svg" width="40.47" height="40.47" viewBox="0 0 40.47 40.47">
  <path id="Path_4151" data-name="Path 4151" d="M22.735,2.5A20.235,20.235,0,1,0,42.97,22.735,20.253,20.253,0,0,0,22.735,2.5ZM12.255,17.58a3.408,3.408,0,1,1,3.408,3.408A3.418,3.418,0,0,1,12.255,17.58Zm10.48,16.444a9.524,9.524,0,0,1-9.287-7.583l3.323-.682a6.143,6.143,0,0,0,12.013,0l3.323.682A9.689,9.689,0,0,1,22.735,34.024Zm7.072-13.036a3.408,3.408,0,1,1,3.408-3.408A3.418,3.418,0,0,1,29.807,20.988Z" transform="translate(-2.5 -2.5)" fill="#707070"/>
</svg>
