<svg xmlns="http://www.w3.org/2000/svg" xmlns:xlink="http://www.w3.org/1999/xlink" width="71" height="71" viewBox="0 0 71 71">
  <defs>
    <filter id="Ellipse_66" x="0" y="0" width="71" height="71" filterUnits="userSpaceOnUse">
      <feOffset dy="3" input="SourceAlpha"/>
      <feGaussianBlur stdDeviation="3" result="blur"/>
      <feFlood flood-opacity="0.161"/>
      <feComposite operator="in" in2="blur"/>
      <feComposite in="SourceGraphic"/>
    </filter>
    <filter id="Subtraction_2" x="0" y="26" width="71" height="45" filterUnits="userSpaceOnUse">
      <feOffset dy="3" input="SourceAlpha"/>
      <feGaussianBlur stdDeviation="3" result="blur-2"/>
      <feFlood flood-opacity="0.161"/>
      <feComposite operator="in" in2="blur-2"/>
      <feComposite in="SourceGraphic"/>
    </filter>
  </defs>
  <g id="Group_1098" data-name="Group 1098" transform="translate(-12112 -4002)">
    <g transform="matrix(1, 0, 0, 1, 12112, 4002)" filter="url(#Ellipse_66)">
      <circle id="Ellipse_66-2" data-name="Ellipse 66" cx="26.5" cy="26.5" r="26.5" transform="translate(9 6)" fill="#396cd3"/>
    </g>
    <g transform="matrix(1, 0, 0, 1, 12112, 4002)" filter="url(#Subtraction_2)">
      <path id="Subtraction_2-2" data-name="Subtraction 2" d="M61,27H8c0-.166,0-.335,0-.5a26.5,26.5,0,1,1,53,0c0,.166,0,.334,0,.5Z" transform="translate(70 59) rotate(180)" fill="#4079ec"/>
    </g>
    <g id="Group_1093" data-name="Group 1093" transform="translate(973 -1604)">
      <rect id="Rectangle_340" data-name="Rectangle 340" width="9.99" height="9.158" transform="translate(11165.192 5633.83)" fill="#fff"/>
      <g id="Group_1085" data-name="Group 1085" transform="translate(11162 5631)">
        <g id="Group_1079" data-name="Group 1079" transform="translate(18.061 1.833)">
          <path id="Path_7859" data-name="Path 7859" d="M76.535,28.559,72.4,30.947v5.907l4.135,2.388a1.544,1.544,0,0,0,2.311-1.335V29.869A1.524,1.524,0,0,0,76.535,28.559Z" transform="translate(-72.4 -28.337)" fill="#fff"/>
        </g>
        <g id="Group_1084" data-name="Group 1084">
          <g id="Group_1080" data-name="Group 1080">
            <path id="Path_7860" data-name="Path 7860" d="M17.369,21.2H4.041A1.545,1.545,0,0,0,2.5,22.741V34.477a1.545,1.545,0,0,0,1.541,1.541H17.369a1.545,1.545,0,0,0,1.541-1.541V22.741A1.545,1.545,0,0,0,17.369,21.2ZM10.718,32.6A4.006,4.006,0,1,1,14.7,28.6,4.011,4.011,0,0,1,10.718,32.6Z" transform="translate(-2.5 -21.2)" fill="#fff"/>
          </g>
          <g id="Group_1083" data-name="Group 1083" transform="translate(3.33 2.498)">
            <path id="Path_7862" data-name="Path 7862" d="M83.831,87.43l.8-.8L85.866,85.4a4.33,4.33,0,0,1,.351-.339l-.087.068a1.17,1.17,0,0,1,.248-.146l-.1.043a1.2,1.2,0,0,1,.3-.082l-.114.015a1.222,1.222,0,0,1,.295,0l-.114-.015a1.156,1.156,0,0,1,.3.082l-.1-.043a1.217,1.217,0,0,1,.248.146L87,85.057a1.153,1.153,0,0,1,.2.2l-.068-.087a1.17,1.17,0,0,1,.146.248l-.043-.1a1.2,1.2,0,0,1,.082.3c-.005-.038-.011-.077-.015-.114a1.221,1.221,0,0,1,0,.295c.005-.038.011-.077.015-.114a1.157,1.157,0,0,1-.082.3l.043-.1a1.218,1.218,0,0,1-.146.248l.068-.087a4,4,0,0,1-.311.324l-.594.594-1.313,1.313a5.073,5.073,0,0,1-.451.424l.087-.068a2.452,2.452,0,0,1-.5.288l.1-.043a2.355,2.355,0,0,1-.587.161l.114-.015a2.38,2.38,0,0,1-.619,0l.114.015a2.355,2.355,0,0,1-.587-.161l.1.043a2.3,2.3,0,0,1-.5-.29l.087.068a2.341,2.341,0,0,1-.42-.42l.068.087a2.241,2.241,0,0,1-.291-.5l.043.1a2.355,2.355,0,0,1-.161-.587c.005.038.011.077.015.114a2.38,2.38,0,0,1,0-.619c-.005.038-.011.077-.015.114a2.356,2.356,0,0,1,.161-.587l-.043.1a2.305,2.305,0,0,1,.29-.5l-.068.087a5.933,5.933,0,0,1,.526-.553l.95-.95,1.172-1.172,1-1c.14-.14.279-.28.421-.421a2.421,2.421,0,0,1,.223-.2l-.087.068a2.279,2.279,0,0,1,.5-.29l-.1.043a2.356,2.356,0,0,1,.587-.161L87,81.473a2.379,2.379,0,0,1,.619,0l-.114-.015a2.356,2.356,0,0,1,.587.161l-.1-.043a2.3,2.3,0,0,1,.5.29L88.4,81.8a2.342,2.342,0,0,1,.42.42l-.068-.087a2.279,2.279,0,0,1,.29.5l-.043-.1a2.356,2.356,0,0,1,.161.587c-.005-.038-.011-.077-.015-.114a2.38,2.38,0,0,1,0,.619c.005-.038.011-.077.015-.114a2.356,2.356,0,0,1-.161.587l.043-.1a2.3,2.3,0,0,1-.29.5l.068-.087a2.27,2.27,0,0,1-.2.223.432.432,0,0,0,.611.611A2.717,2.717,0,0,0,90,83.011a2.7,2.7,0,0,0-1.32-2.051,2.738,2.738,0,0,0-2.319-.2,2.787,2.787,0,0,0-.983.627l-.112.112-.662.662L83.6,83.167l-1.048,1.048-.792.792a5.1,5.1,0,0,0-.55.611,2.721,2.721,0,0,0,3.576,3.924,4.15,4.15,0,0,0,.859-.724l.976-.976.908-.908.178-.178a1.578,1.578,0,0,0,.459-1.122,1.552,1.552,0,0,0-.561-1.183,1.587,1.587,0,0,0-.637-.32,1.654,1.654,0,0,0-.727,0,1.576,1.576,0,0,0-.764.437l-.25.25-.977.977-.887.887-.143.143a.437.437,0,0,0,0,.611.446.446,0,0,0,.613,0Z" transform="translate(-80.718 -80.588)" fill="#396cd3"/>
          </g>
        </g>
      </g>
    </g>
  </g>
</svg>
