<svg xmlns="http://www.w3.org/2000/svg" width="13.026" height="29.195" viewBox="0 0 13.026 29.195">
  <g id="Group_553" data-name="Group 553" transform="translate(-1775.425 -1671)" opacity="0.5">
    <path id="Path_4166" data-name="Path 4166" d="M39.762,25.046a.689.689,0,0,0-.689.689V32a4.9,4.9,0,0,1-5.134,4.616A4.906,4.906,0,0,1,28.8,32v-6.26a.689.689,0,1,0-1.376,0V32a6.224,6.224,0,0,0,5.823,5.961v7.014H30.68a1.16,1.16,0,1,0,0,2.321h6.5a1.16,1.16,0,0,0,0-2.321H34.628V37.957A6.208,6.208,0,0,0,40.451,32v-6.26A.689.689,0,0,0,39.762,25.046Z" transform="translate(1748 1652.903)" fill="#707070"/>
    <path id="Path_4167" data-name="Path 4167" d="M40.346,19.513h0a3.662,3.662,0,0,0,3.662-3.666V6.236A3.662,3.662,0,0,0,40.346,2.57h0A3.665,3.665,0,0,0,36.68,6.236v9.612A3.665,3.665,0,0,0,40.346,19.513Z" transform="translate(1741.593 1668.43)" fill="#707070"/>
  </g>
</svg>
