<svg xmlns="http://www.w3.org/2000/svg" width="26" height="26.147" viewBox="0 0 26 26.147">
  <g id="Group_548" data-name="Group 548" transform="translate(-167.94 -167.565)">
    <path id="Path_4153" data-name="Path 4153" d="M174.151,208.3h-5.945a.269.269,0,0,0-.266.266v5.945a.245.245,0,0,0,.065.169.193.193,0,0,0,.014.018l.018.013a.238.238,0,0,0,.169.066h5.945a.268.268,0,0,0,.266-.266v-5.945A.268.268,0,0,0,174.151,208.3Z" transform="translate(0 -36.653)" fill="#fff"/>
    <path id="Path_4154" data-name="Path 4154" d="M251.849,208.38l-.018-.013a.238.238,0,0,0-.169-.066h-5.945a.268.268,0,0,0-.266.266v5.945a.268.268,0,0,0,.266.266h5.945a.269.269,0,0,0,.266-.266v-5.945a.245.245,0,0,0-.065-.169A.184.184,0,0,0,251.849,208.38Z" transform="translate(-69.742 -36.653)" fill="#fff"/>
    <path id="Path_4155" data-name="Path 4155" d="M329.358,208.38l-.018-.013a.238.238,0,0,0-.169-.066h-5.945a.269.269,0,0,0-.266.266v5.945a.269.269,0,0,0,.266.266h5.945a.268.268,0,0,0,.266-.266v-5.945a.245.245,0,0,0-.065-.169A.157.157,0,0,0,329.358,208.38Z" transform="translate(-139.482 -36.653)" fill="#fff"/>
    <path id="Path_4156" data-name="Path 4156" d="M174.151,286.06h-5.945a.269.269,0,0,0-.266.266v5.945a.245.245,0,0,0,.065.169.162.162,0,0,0,.014.018l.018.013a.238.238,0,0,0,.169.066h5.945a.268.268,0,0,0,.266-.266v-5.945A.268.268,0,0,0,174.151,286.06Z" transform="translate(0 -106.618)" fill="#fff"/>
    <path id="Path_4157" data-name="Path 4157" d="M251.849,286.138l-.018-.013a.238.238,0,0,0-.169-.066h-5.945a.268.268,0,0,0-.266.266v5.945a.268.268,0,0,0,.266.266h5.945a.269.269,0,0,0,.266-.266v-5.945a.245.245,0,0,0-.065-.169A.18.18,0,0,0,251.849,286.138Z" transform="translate(-69.742 -106.617)" fill="#fff"/>
    <path id="Path_4158" data-name="Path 4158" d="M329.172,286.06h-5.945a.269.269,0,0,0-.266.266v5.945a.245.245,0,0,0,.065.169.151.151,0,0,0,.014.018l.018.013a.238.238,0,0,0,.169.066h5.945a.268.268,0,0,0,.266-.266v-5.945A.269.269,0,0,0,329.172,286.06Z" transform="translate(-139.483 -106.618)" fill="#fff"/>
    <path id="Path_4159" data-name="Path 4159" d="M174.151,363.819h-5.945a.269.269,0,0,0-.266.266v5.945a.245.245,0,0,0,.065.169.191.191,0,0,0,.014.018l.018.013a.238.238,0,0,0,.169.066h5.945a.268.268,0,0,0,.266-.266v-5.945A.268.268,0,0,0,174.151,363.819Z" transform="translate(0 -176.583)" fill="#fff"/>
    <path id="Path_4160" data-name="Path 4160" d="M251.849,363.9l-.018-.013a.238.238,0,0,0-.169-.066h-5.945a.268.268,0,0,0-.266.266v5.945a.268.268,0,0,0,.266.266h5.945a.269.269,0,0,0,.266-.266v-5.945a.245.245,0,0,0-.065-.169A.177.177,0,0,0,251.849,363.9Z" transform="translate(-69.742 -176.583)" fill="#fff"/>
    <path id="Path_4161" data-name="Path 4161" d="M329.172,363.819h-5.945a.269.269,0,0,0-.266.266v5.945a.245.245,0,0,0,.065.169.176.176,0,0,0,.014.018l.018.013a.238.238,0,0,0,.169.066h5.945a.268.268,0,0,0,.266-.266v-5.945A.269.269,0,0,0,329.172,363.819Z" transform="translate(-139.483 -176.583)" fill="#fff"/>
    <path id="Path_4162" data-name="Path 4162" d="M319.48,167.565H308.026a.269.269,0,0,0-.266.266v2.126a.244.244,0,0,0,.065.169.2.2,0,0,0,.014.018.2.2,0,0,0,.018.014.243.243,0,0,0,.169.065h9.063v8.591a.269.269,0,0,0,.266.266h2.126a.268.268,0,0,0,.266-.266V167.831A.268.268,0,0,0,319.48,167.565Z" transform="translate(-125.806 0)" fill="#fff"/>
    <path id="Path_4163" data-name="Path 4163" d="M403.222,291.507H401.1a.268.268,0,0,0-.266.266v2.485a.243.243,0,0,0,.065.169.086.086,0,0,0,.032.032.243.243,0,0,0,.169.065h2.126a.268.268,0,0,0,.266-.266v-2.485A.268.268,0,0,0,403.222,291.507Z" transform="translate(-209.548 -111.519)" fill="#fff"/>
  </g>
</svg>
