<svg xmlns="http://www.w3.org/2000/svg" width="30" height="23.828" viewBox="0 0 30 23.828">
  <g id="broadcast_" data-name="broadcast " transform="translate(-2 -4.01)">
    <path id="Path_1" data-name="Path 1" d="M27.006,10.12a.73.73,0,0,1,.328-1l3.591-1.788a.746.746,0,0,1,.656,1.341L28,10.463a.954.954,0,0,1-.343.075.715.715,0,0,1-.656-.417Zm4.575,11.564-3.591-1.8a.745.745,0,0,0-1,.328.775.775,0,0,0,.328,1.013L30.91,23.01a.656.656,0,0,0,.328,0,.745.745,0,0,0,.343-1.4Zm-3.5-7.257h0a.745.745,0,0,0,0,1.49h2.98a.745.745,0,1,0,0-1.49ZM9.451,9.956H7.961V18.9h1.49Zm-2.98-.283L2.984,8.466a.715.715,0,0,0-.671.089A.775.775,0,0,0,2,9.211V19.642a.775.775,0,0,0,.313.611.745.745,0,0,0,.432.134.671.671,0,0,0,.238,0L6.471,19.18Zm16.392.358V4.74a.775.775,0,0,0-.358-.641.76.76,0,0,0-.715,0L10.941,9.494v9.865l10.849,5.5a.8.8,0,0,0,.328.075.879.879,0,0,0,.387-.1.775.775,0,0,0,.358-.715V18.9a3.726,3.726,0,0,0,2.98-3.651v-1.49A3.726,3.726,0,0,0,22.863,10.03ZM7.574,20.387l-1.1.373v6.333a.745.745,0,0,0,.745.745H10.2a.745.745,0,0,0,.745-.745V21.028l-1.267-.641Z" transform="translate(0 0)" fill="#fff"/>
  </g>
</svg>
