<svg xmlns="http://www.w3.org/2000/svg" width="28" height="27.099" viewBox="0 0 28 27.099">
  <g id="Group_278" data-name="Group 278" transform="translate(-5 -6.4)">
    <path id="Path_3881" data-name="Path 3881" d="M28.4,6.4H9.537A4.569,4.569,0,0,0,5,10.968V23.275a4.542,4.542,0,0,0,4.537,4.537h8.857L28,33.5l-.466-5.687h.9A4.569,4.569,0,0,0,33,23.275V10.968A4.623,4.623,0,0,0,28.4,6.4ZM11.557,17.556a1.4,1.4,0,1,1,1.4,1.4A1.413,1.413,0,0,1,11.557,17.556Zm6.309,0a1.4,1.4,0,1,1,1.4,1.4A1.434,1.434,0,0,1,17.866,17.556Zm7.676,1.367a1.4,1.4,0,1,1,1.4-1.4A1.393,1.393,0,0,1,25.542,18.924Z" transform="translate(0)" fill="#fff"/>
  </g>
</svg>
