<svg xmlns="http://www.w3.org/2000/svg" width="28.926" height="28.926" viewBox="0 0 28.926 28.926">
  <g id="Group_300" data-name="Group 300" transform="translate(-54.475 -627.45)">
    <g id="Group_299" data-name="Group 299" transform="translate(54.475 627.45)">
      <path id="Path_3907" data-name="Path 3907" d="M14.407,43.3a8.338,8.338,0,0,0,7.235-4.18A8.354,8.354,0,0,1,9.1,31.88a8.378,8.378,0,0,1,1.126-4.18,8.338,8.338,0,0,0-4.18,7.235,8.152,8.152,0,0,0,.836,3.634,3.167,3.167,0,0,0-.965.643,3.07,3.07,0,1,0,4.341,4.341,3.177,3.177,0,0,0,.675-1.029A8.322,8.322,0,0,0,14.407,43.3Z" transform="translate(-5.025 -20.408)" fill="#fff"/>
      <path id="Path_3908" data-name="Path 3908" d="M42.525,54.008a8.436,8.436,0,0,0,.772-3.473,8.338,8.338,0,0,0-4.18-7.235A8.354,8.354,0,0,1,31.88,55.841a8.378,8.378,0,0,1-4.18-1.126,8.338,8.338,0,0,0,7.235,4.18,8.152,8.152,0,0,0,3.634-.836,3.167,3.167,0,0,0,.643.965,3.07,3.07,0,0,0,4.341-4.341A3.177,3.177,0,0,0,42.525,54.008Z" transform="translate(-20.408 -30.992)" fill="#fff"/>
      <path id="Path_3909" data-name="Path 3909" d="M59.025,21.117a3.086,3.086,0,0,0-4.341,0,3.177,3.177,0,0,0-.675,1.029,8.436,8.436,0,0,0-3.473-.772,8.338,8.338,0,0,0-7.235,4.18A8.354,8.354,0,0,1,55.841,32.79a8.378,8.378,0,0,1-1.126,4.18,8.338,8.338,0,0,0,4.18-7.235A8.152,8.152,0,0,0,58.06,26.1a3.167,3.167,0,0,0,.965-.643A3.086,3.086,0,0,0,59.025,21.117Z" transform="translate(-30.992 -15.337)" fill="#fff"/>
      <path id="Path_3910" data-name="Path 3910" d="M22.146,10.934a8.436,8.436,0,0,0-.772,3.473,8.338,8.338,0,0,0,4.18,7.235A8.354,8.354,0,0,1,32.79,9.1a8.378,8.378,0,0,1,4.18,1.126,8.338,8.338,0,0,0-7.235-4.18,8.152,8.152,0,0,0-3.634.836,3.167,3.167,0,0,0-.643-.965,3.07,3.07,0,1,0-4.341,4.341A3.177,3.177,0,0,0,22.146,10.934Z" transform="translate(-15.337 -5.025)" fill="#fff"/>
    </g>
  </g>
</svg>
