<svg width="21" height="21" viewBox="0 0 21 21" fill="none" xmlns="http://www.w3.org/2000/svg">
<path d="M20.9582 16.5296C20.8856 16.209 20.7471 15.907 20.5514 15.6425C20.3557 15.3781 20.1072 15.157 19.8214 14.9932C18.7238 14.3499 17.587 13.7281 16.4894 13.1287L15.7385 12.7177C15.4513 12.5187 15.12 12.392 14.773 12.3485C14.426 12.305 14.0736 12.346 13.7459 12.4678C13.4602 12.6178 13.2153 12.8347 13.0325 13.1C12.8496 13.3653 12.7343 13.671 12.6963 13.9907C12.691 14.0061 12.688 14.0223 12.6875 14.0386C12.665 14.1276 12.6207 14.2098 12.5587 14.2777C12.4967 14.3456 12.4189 14.3973 12.3321 14.4281C12.2015 14.467 12.0633 14.4728 11.9299 14.4449C11.7965 14.417 11.6722 14.3564 11.5683 14.2684C9.76797 12.8617 8.14109 11.2472 6.7217 9.45883C6.63331 9.35796 6.57268 9.23595 6.54574 9.10472C6.5188 8.9735 6.52647 8.83755 6.56799 8.71017C6.60396 8.61329 6.66522 8.52774 6.74544 8.46235C6.82566 8.39697 6.92193 8.35412 7.02432 8.33823C7.03713 8.33424 7.05474 8.33424 7.06835 8.32945C7.39408 8.29038 7.70453 8.16948 7.97058 7.97809C8.23662 7.78669 8.44956 7.53107 8.58943 7.2352C8.70278 6.85413 8.71819 6.45076 8.63425 6.06219C8.55031 5.67363 8.36972 5.31234 8.10909 5.01157C7.59245 4.20649 7.12332 3.37208 6.70409 2.51258C6.50635 2.13186 6.31341 1.75115 6.11167 1.37442C5.96489 1.05137 5.74949 0.763949 5.48037 0.532024C5.21125 0.300099 4.89482 0.129201 4.55296 0.0311439C4.25256 -0.0213364 3.94425 -0.00736069 3.64986 0.0720823C3.35547 0.151525 3.08219 0.294494 2.84935 0.490875C2.2586 0.930429 1.69454 1.40456 1.16015 1.91077C0.588 2.4348 0.202002 3.12989 0.0602248 3.89147C-0.0815525 4.65305 0.0285584 5.43994 0.373993 6.13376C1.69918 9.42589 3.68529 12.4133 6.2104 14.9125C8.73551 17.4117 11.7463 19.37 15.058 20.6672C15.5516 20.8803 16.0828 20.9935 16.6207 21C17.0807 20.9953 17.535 20.8983 17.9566 20.7149C18.3781 20.5314 18.7583 20.2652 19.0745 19.9321C19.6304 19.3648 20.1439 18.7576 20.6108 18.1155C20.7772 17.8903 20.8941 17.6327 20.954 17.3595C21.0139 17.0862 21.0153 16.8034 20.9582 16.5296Z" fill="white"/>
</svg>
