<svg width="22" height="22" viewBox="0 0 22 22" fill="none" xmlns="http://www.w3.org/2000/svg">
<path d="M9.16523 16.5C9.16523 12.7617 11.9668 9.68086 15.5805 9.22969V9.16523C15.8168 8.82148 16.4957 8.25 16.4957 7.33047C16.4957 6.41094 15.5805 5.4957 15.5805 5.04023C15.5848 1.375 13.7156 0 11 0C8.40039 0 6.41523 1.375 6.41523 5.04023C6.41523 5.5 5.5 6.41523 5.5 7.33047C5.5 8.2457 6.15313 8.85156 6.41523 9.16523C6.41523 9.16523 6.41523 10.0805 6.875 11.4555C6.875 11.9152 7.79023 12.3707 8.25 12.8305C8.25 13.2902 8.25 13.7457 7.79023 14.6652L2.75 15.5848C0.915234 16.0402 0 19.25 0 22H11.6617C10.1363 20.6551 9.16523 18.6914 9.16523 16.5V16.5ZM16.5 11C13.4621 11 11 13.4621 11 16.5C11 19.5379 13.4621 22 16.5 22C19.5379 22 22 19.5379 22 16.5C22 13.4621 19.5379 11 16.5 11ZM20.1652 17.4152H17.4152V20.1652H15.5805V17.4152H12.8305V15.5805H15.5805V12.8305H17.4152V15.5805H20.1652V17.4152Z" fill="white"/>
</svg>
