<svg xmlns="http://www.w3.org/2000/svg" width="19.245" height="22.115" viewBox="0 0 19.245 22.115">
  <g id="Group_1160" data-name="Group 1160" transform="translate(0 0.001)">
    <path id="Path_7934" data-name="Path 7934" d="M16.648,24.186a2.563,2.563,0,1,1-4.905,1l4.265-1.87A2.549,2.549,0,0,1,16.648,24.186Z" transform="translate(-2.855 -5.667)" fill="#636363"/>
    <path id="Path_7935" data-name="Path 7935" d="M.624,11.741a7.179,7.179,0,0,1,1.208-7.8,2.278,2.278,0,0,1-.205-.35A2.563,2.563,0,0,1,6.322,1.533a2.338,2.338,0,0,1,.115.376,7.53,7.53,0,0,1,6.746,4.378s2.059,4.728,4.321,5.1c.07,0,1.283.034,1.653.918.349.836-.369,1.956-1.619,2.494L4.006,20.636c-1.248.538-2.627.322-2.922-.534a1.9,1.9,0,0,1,.409-1.7C2.769,16.442.624,11.741.624,11.741Z" transform="translate(0 0)" fill="#636363"/>
  </g>
</svg>
