<svg xmlns="http://www.w3.org/2000/svg" width="21.596" height="21.596" viewBox="0 0 21.596 21.596">
  <g id="Group_1157" data-name="Group 1157" transform="translate(-1.85 -1.85)">
    <g id="Group_1046" data-name="Group 1046" transform="translate(1.85 1.85)">
      <path id="Path_7838" data-name="Path 7838" d="M20.285,5.022a1.16,1.16,0,0,0-.1-.09A10.34,10.34,0,0,0,12.642,1.85,10.432,10.432,0,0,0,5.01,5L5,5.01A10.432,10.432,0,0,0,1.85,12.642a10.339,10.339,0,0,0,3.082,7.542,1.164,1.164,0,0,0,.09.1l.045.045a10.38,10.38,0,0,0,7.576,3.116,10.289,10.289,0,0,0,7.609-3.183.01.01,0,0,0,.011-.011,10.289,10.289,0,0,0,3.183-7.609A10.38,10.38,0,0,0,20.33,5.066l-.045-.045M19.1,4.528l-.022-.011.022.011h0m-6.455.684a7.1,7.1,0,0,1,3.945,1.121L6.333,16.587a7.1,7.1,0,0,1-1.121-3.945A7.2,7.2,0,0,1,7.386,7.386h0a7.2,7.2,0,0,1,5.256-2.174m5.245,12.664-.011.011a7.068,7.068,0,0,1-5.234,2.2,7.16,7.16,0,0,1-3.934-1.109L18.974,8.709a7.158,7.158,0,0,1,1.109,3.934A7.068,7.068,0,0,1,17.887,17.876Z" transform="translate(-1.85 -1.85)" fill="#636363"/>
    </g>
  </g>
</svg>
