<svg xmlns="http://www.w3.org/2000/svg" width="28" height="28" viewBox="0 0 28 28">
  <path id="Path_7950" data-name="Path 7950" d="M19.218,10.687A5.687,5.687,0,1,1,13.531,5a5.687,5.687,0,0,1,5.687,5.687ZM33,25.126a7.874,7.874,0,1,1-7.874-7.874A7.874,7.874,0,0,1,33,25.126ZM20.244,28.778l8.534-8.534a6.1,6.1,0,0,0-8.534,8.534Zm11.007-3.652a6.07,6.07,0,0,0-1.244-3.652l-8.534,8.543a6.1,6.1,0,0,0,9.778-4.891Zm-15.748,0a9.6,9.6,0,0,1,3.842-7.681c-.077-.119-.149-.249-.226-.364a8.375,8.375,0,0,1-11.172,0A19.117,19.117,0,0,0,5,27.752H15.873a9.644,9.644,0,0,1-.373-2.626Z" transform="translate(-5 -5)" fill="#636363"/>
</svg>
