<svg xmlns="http://www.w3.org/2000/svg" width="19.819" height="19.818" viewBox="0 0 19.819 19.818">
  <g id="Group_1158" data-name="Group 1158" transform="translate(-0.265 -280.332)">
    <path id="Path_7936" data-name="Path 7936" d="M11.47,281.471a3.842,3.842,0,0,0-1.122,2.712v5.637l3.986-3.986a3.838,3.838,0,0,0,1.124-2.723h0a3.839,3.839,0,0,0-1.123-2.723l-.055-.057H14.2a3.84,3.84,0,0,0-2.72,1.131Zm-5.457,4.363L10,289.82v-5.637a3.862,3.862,0,0,0-3.852-3.852h-.08l-.056.056h0L6,280.4a3.839,3.839,0,0,0-1.115,2.715h0a3.842,3.842,0,0,0,1.121,2.721l0,0Zm-1.9,4.233H9.753l-3.986-3.986a3.836,3.836,0,0,0-2.723-1.123h0a3.84,3.84,0,0,0-2.723,1.124l-.056.056v.079a3.863,3.863,0,0,0,3.851,3.851ZM5.766,294.4l3.987-3.987H4.116a3.863,3.863,0,0,0-3.851,3.851v.079l.056.056a3.84,3.84,0,0,0,2.723,1.124h0a3.841,3.841,0,0,0,2.721-1.12l0,0ZM10,296.3v-5.637l-3.986,3.986a3.838,3.838,0,0,0-1.124,2.723h0a3.839,3.839,0,0,0,1.123,2.723l.055.056h.08A3.863,3.863,0,0,0,10,296.3Zm4.334-1.651-3.986-3.987V296.3a3.842,3.842,0,0,0,1.131,2.721h0a3.84,3.84,0,0,0,2.72,1.131h.08l.056-.056h0l.009-.008a3.839,3.839,0,0,0,1.114-2.715h0a3.842,3.842,0,0,0-1.121-2.721l0,0Zm1.9-4.233H10.594L14.58,294.4a3.836,3.836,0,0,0,2.723,1.123h0a3.84,3.84,0,0,0,2.723-1.124l.056-.056v-.079a3.863,3.863,0,0,0-3.851-3.851Zm1.072-5.458a3.843,3.843,0,0,0-2.715,1.114l-.008.01-3.987,3.987h5.638a3.863,3.863,0,0,0,3.851-3.851c0-.1.015-.062-.064-.144a3.84,3.84,0,0,0-2.715-1.115Z" fill="#636363" fill-rule="evenodd"/>
  </g>
</svg>
