<svg xmlns="http://www.w3.org/2000/svg" width="19.043" height="19.043" viewBox="0 0 19.043 19.043">
  <path id="Path_7943" data-name="Path 7943" d="M13.656,0H5.387A5.4,5.4,0,0,0,0,5.387v8.268a5.4,5.4,0,0,0,5.387,5.387h8.268a5.4,5.4,0,0,0,5.387-5.387V5.387A5.4,5.4,0,0,0,13.656,0ZM9.215,14.282a1.257,1.257,0,0,1-1.247-1.249A1.192,1.192,0,0,1,9.2,11.8a1.244,1.244,0,0,1,.011,2.487ZM11.353,8.6c-.129.152-.267.3-.406.444A2.689,2.689,0,0,0,10.121,11v.1H8.331A2.971,2.971,0,0,1,8.474,9.82a4.144,4.144,0,0,1,.813-1.394,3.072,3.072,0,0,0,.529-.785A.785.785,0,0,0,9.1,6.486a2.487,2.487,0,0,0-1.485.31c-.179-.465-.356-.918-.524-1.377a.177.177,0,0,1,.076-.154,7.793,7.793,0,0,1,1.076-.381,4.2,4.2,0,0,1,2.152.034A2.045,2.045,0,0,1,11.93,6.89,2.308,2.308,0,0,1,11.353,8.6Z" fill="#636363"/>
</svg>
