<svg xmlns="http://www.w3.org/2000/svg" width="19.819" height="18.58" viewBox="0 0 19.819 18.58">
  <g id="Group_1159" data-name="Group 1159" transform="translate(0 -1.5)">
    <path id="Path_7937" data-name="Path 7937" d="M4.542,12.978a.493.493,0,0,1,.372-.206h0a.434.434,0,0,1,.372.206l3.1,4.5L13.5,8.891a.508.508,0,0,1,.413-.206h0a.454.454,0,0,1,.413.248l5.491,9.744V1.5H0V19.254Zm.7-9.786A3.221,3.221,0,1,1,2.023,6.413,3.225,3.225,0,0,1,5.244,3.193Z" fill="#636363"/>
    <path id="Path_7938" data-name="Path 7938" d="M8.815,39.477,7.246,37.165l-.7,1.445c-.083.124-.206.248-.33.248H6.131a.376.376,0,0,1-.33-.165L4.149,37,1.3,40.881H9.723l-.908-1.4Z" transform="translate(-0.763 -20.842)" fill="#636363"/>
    <circle id="Ellipse_87" data-name="Ellipse 87" cx="2.271" cy="2.271" r="2.271" transform="translate(2.973 4.143)" fill="#636363"/>
    <path id="Path_7939" data-name="Path 7939" d="M11.5,33.3l-.95-1.4L9.6,33.221l1.28,1.363Z" transform="translate(-5.636 -17.848)" fill="#636363"/>
    <path id="Path_7940" data-name="Path 7940" d="M31.2,25.91a.493.493,0,0,1,.372-.206h0a.434.434,0,0,1,.372.206l.619.991.413-1.858L31.486,22.4,30,24.96l.743,1.693Z" transform="translate(-17.613 -12.271)" fill="#636363"/>
    <path id="Path_7941" data-name="Path 7941" d="M28.9,31.289l-.413,1.941a.558.558,0,0,1-.372.372h-.083a.434.434,0,0,1-.372-.206L26.8,32.074l-.578.867a.419.419,0,0,1-.413.206.4.4,0,0,1-.372-.289L24.608,31,21.8,35.707,22.956,37.4h9.373Z" transform="translate(-12.799 -17.32)" fill="#636363"/>
  </g>
</svg>
