<svg xmlns="http://www.w3.org/2000/svg" width="18.137" height="16" viewBox="0 0 18.137 16">
  <g id="Group_1264" data-name="Group 1264" transform="translate(0 -5.891)">
    <path id="Path_15152" data-name="Path 15152" d="M9.481,17.686a4.2,4.2,0,0,1,2.151-3.669,3.645,3.645,0,0,0,.026-.572c.47.259.778-.894.778-.894.555-1.6-.279-1.506-.279-1.506a9.986,9.986,0,0,0,0-2.953c-.368-3.245-6.078-2.221-5.222-1.2-2.029-.565-1.323,3.282-1.323,3.282l.353.953c-.694.448-.212.988-.187,1.612.034.919.6.729.6.729.033,1.518.787,1.716.787,1.716.141.954,0,.871,0,.871H6.547a2.663,2.663,0,0,1-.053.648c-.79.347-.958.553-1.741.892-1.514.66-3.446,1.366-3.446,1.366A1.633,1.633,0,0,0,0,20.268v1.624H13.686A4.205,4.205,0,0,1,9.481,17.686Z" transform="translate(0 0)" fill="#303030"/>
    <path id="Path_15153" data-name="Path 15153" d="M60.3,49.1a3.959,3.959,0,1,0,3.959,3.958A3.941,3.941,0,0,0,60.3,49.1Zm2.883,4.6H60.948v2.21h-1.3V53.7H57.415V52.414h2.235V50.205h1.3v2.209h2.235Z" transform="translate(-46.121 -35.368)" fill="#303030"/>
  </g>
</svg>
