<svg xmlns="http://www.w3.org/2000/svg" width="24" height="24" viewBox="0 0 24 24">
  <g id="Group_1254" data-name="Group 1254" transform="translate(-736 -1114)">
    <circle id="Ellipse_96" data-name="Ellipse 96" cx="12" cy="12" r="12" transform="translate(736 1114)" fill="#ff1f38"/>
    <path id="Path_15132" data-name="Path 15132" d="M18.966,16.865a3.7,3.7,0,0,1-3.286,2.252c-.18,0-2.98.148-7.006-3.67A11.168,11.168,0,0,1,5,8.441c-.034-.612.142-2.146,2.252-3.286.262-.141.78-.2.914-.07.059.059,1.831,2.974,1.877,3.071a.652.652,0,0,1,.07.285.829.829,0,0,1-.285.5,4.852,4.852,0,0,1-.619.549,6.029,6.029,0,0,0-.619.529.76.76,0,0,0-.285.459c.013.311.268,1.425,2.208,3.13a14.935,14.935,0,0,0,2.966,2.22.675.675,0,0,0,.225.05.76.76,0,0,0,.46-.284c.186-.19.813-1.049,1.013-1.239a.829.829,0,0,1,.5-.284.651.651,0,0,1,.284.07c.1.047,3.015,1.755,3.071,1.812.151.155.045.64-.07.914" transform="translate(765.031 1126.982) rotate(135)" fill="#fff"/>
  </g>
</svg>
