<svg xmlns="http://www.w3.org/2000/svg" width="16" height="16" viewBox="0 0 16 16">
  <g id="Group_1246" data-name="Group 1246" transform="translate(-904.82 -1343)">
    <path id="Path_15128" data-name="Path 15128" d="M62.231,62.435H58.76a.2.2,0,0,1-.145-.347l.868-.868-3.8-3.8a.386.386,0,0,1,0-.543l1.2-1.19a.386.386,0,0,1,.543,0l3.792,3.8.868-.868a.2.2,0,0,1,.347.145v3.471A.2.2,0,0,1,62.231,62.435Z" transform="translate(858.385 1296.565)" fill="#303030"/>
    <path id="Path_15129" data-name="Path 15129" d="M10.82,11.024V14.5a.2.2,0,0,0,.347.145l.868-.868,3.8,3.8a.386.386,0,0,0,.543,0l1.19-1.19a.386.386,0,0,0,0-.543l-3.8-3.8.868-.868a.2.2,0,0,0-.145-.347H11.02A.2.2,0,0,0,10.82,11.024Z" transform="translate(894 1332.18)" fill="#303030"/>
    <path id="Path_15130" data-name="Path 15130" d="M62.435,11.024V14.5a.2.2,0,0,1-.347.145l-.868-.868-3.8,3.8a.386.386,0,0,1-.543,0l-1.19-1.19a.386.386,0,0,1,0-.543l3.8-3.8-.868-.868a.2.2,0,0,1,.145-.347h3.471a.2.2,0,0,1,.2.2Z" transform="translate(858.385 1332.18)" fill="#303030"/>
    <path id="Path_15131" data-name="Path 15131" d="M11.024,62.435H14.5a.2.2,0,0,0,.145-.347l-.868-.868,3.8-3.8a.386.386,0,0,0,0-.543l-1.19-1.19a.386.386,0,0,0-.543,0l-3.8,3.8-.868-.868a.2.2,0,0,0-.347.145v3.471a.2.2,0,0,0,.2.2Z" transform="translate(894 1296.565)" fill="#303030"/>
  </g>
</svg>
