<svg xmlns="http://www.w3.org/2000/svg" width="22.455" height="12.634" viewBox="0 0 22.455 12.634">
  <g id="Group_1245" data-name="Group 1245" transform="translate(-622 -1121)">
    <path id="Path_15125" data-name="Path 15125" d="M2.5,10.482A2.081,2.081,0,0,1,4.581,8.41H17.506a2.081,2.081,0,0,1,2.056,2.072V14.5a.424.424,0,0,0,.416.416.416.416,0,0,0,.416-.416V12.272l4.561-2.114v8.731l-4.8-2.231H19.77l-.067.05-.058.075v.05h0a.266.266,0,0,0,0,.075v.083h0v1.981a2.081,2.081,0,0,1-2.072,2.072H4.581A2.081,2.081,0,0,1,2.5,18.972Z" transform="translate(619.5 1112.59)" fill="#303030"/>
  </g>
</svg>
