<svg xmlns="http://www.w3.org/2000/svg" width="13.803" height="20.813" viewBox="0 0 13.803 20.813">
  <g id="Group_1244" data-name="Group 1244" transform="translate(-18.5 -2.5)">
    <path id="Path_15135" data-name="Path 15135" d="M37.856,2.5a3.417,3.417,0,0,1,3.407,3.407v7.338a3.407,3.407,0,0,1-6.814,0V5.907A3.417,3.417,0,0,1,37.856,2.5Z" transform="translate(-12.455)" fill="#303030" fill-rule="evenodd"/>
    <path id="Path_15136" data-name="Path 15136" d="M32.3,38.673a6.925,6.925,0,0,1-5.853,6.821v.944h3.534a1.048,1.048,0,1,1,0,2.1H20.819a1.048,1.048,0,1,1,0-2.1h3.534v-.944A6.924,6.924,0,0,1,18.5,38.673V35.846a1.048,1.048,0,0,1,2.1,0v2.827a4.8,4.8,0,0,0,9.609,0V35.846a1.048,1.048,0,0,1,2.1,0Z" transform="translate(0 -25.222)" fill="#303030" fill-rule="evenodd"/>
  </g>
</svg>
