<svg xmlns="http://www.w3.org/2000/svg" width="84.326" height="16.206" viewBox="0 0 84.326 16.206">
  <g id="Group_1253" data-name="Group 1253" transform="translate(-868.969 -1120)">
    <path id="Path_15133" data-name="Path 15133" d="M14.662,13.251h-.825a5.732,5.732,0,1,0-1.041.854v1.011l4.665,4.665,1.866-1.866Zm-4.944,0a3.958,3.958,0,1,1,3.958-3.958A3.963,3.963,0,0,1,9.717,13.251Zm2.2-3.585H10.157v1.759h-.88V9.666H7.518v-.88H9.277V7.027h.88V8.786h1.759Z" transform="translate(864.969 1116.425)" fill="#303030"/>
    <path id="Path_15143" data-name="Path 15143" d="M14.662,13.251h-.825a5.732,5.732,0,1,0-1.041.854v1.011l4.665,4.665,1.866-1.866Zm-4.944,0a3.958,3.958,0,1,1,3.958-3.958A3.963,3.963,0,0,1,9.717,13.251Zm2.2-3.585h-4.4v-.88h4.4Z" transform="translate(933.969 1116.425)" fill="#303030"/>
    <g id="Group_1250" data-name="Group 1250" transform="translate(-13.352 -1)">
      <path id="Path_15141" data-name="Path 15141" d="M13.084-60.048H10.827v-8.509A7.783,7.783,0,0,1,7.91-66.845v-2.049a6.529,6.529,0,0,0,1.92-1.1,4.167,4.167,0,0,0,1.422-1.884h1.832Zm7.191-11.827a3.218,3.218,0,0,1,2.675,1.221q1.149,1.446,1.149,4.8t-1.157,4.8a3.213,3.213,0,0,1-2.667,1.205A3.371,3.371,0,0,1,17.5-61.169q-1.053-1.322-1.053-4.712,0-3.326,1.157-4.789A3.213,3.213,0,0,1,20.275-71.875Zm0,1.872a1.128,1.128,0,0,0-.731.261,1.753,1.753,0,0,0-.5.936,12.911,12.911,0,0,0-.233,2.949,12.815,12.815,0,0,0,.209,2.848,2,2,0,0,0,.526,1.032,1.123,1.123,0,0,0,.727.257,1.128,1.128,0,0,0,.731-.261,1.753,1.753,0,0,0,.5-.936,12.8,12.8,0,0,0,.233-2.941,12.815,12.815,0,0,0-.209-2.848A2.03,2.03,0,0,0,21-69.742,1.112,1.112,0,0,0,20.275-70Zm9.151-1.872A3.218,3.218,0,0,1,32.1-70.654q1.149,1.446,1.149,4.8t-1.157,4.8a3.213,3.213,0,0,1-2.667,1.205,3.371,3.371,0,0,1-2.772-1.322Q25.6-62.491,25.6-65.881q0-3.326,1.157-4.789A3.213,3.213,0,0,1,29.427-71.875Zm0,1.872a1.128,1.128,0,0,0-.731.261,1.753,1.753,0,0,0-.5.936,12.911,12.911,0,0,0-.233,2.949,12.815,12.815,0,0,0,.209,2.848,2,2,0,0,0,.526,1.032,1.123,1.123,0,0,0,.727.257,1.128,1.128,0,0,0,.731-.261,1.753,1.753,0,0,0,.5-.936,12.8,12.8,0,0,0,.233-2.941,12.815,12.815,0,0,0-.209-2.848,2.03,2.03,0,0,0-.526-1.036A1.112,1.112,0,0,0,29.427-70Z" transform="translate(896.441 1194.875)" fill="#303030" stroke="#303030" stroke-width="0.5"/>
      <path id="Path_15142" data-name="Path 15142" d="M4.346-69.8a3.281,3.281,0,0,1,.671-2.266,2.339,2.339,0,0,1,1.82-.737,2.393,2.393,0,0,1,1.858.733,3.278,3.278,0,0,1,.671,2.27,3.281,3.281,0,0,1-.671,2.266,2.339,2.339,0,0,1-1.82.737,2.393,2.393,0,0,1-1.858-.733A3.278,3.278,0,0,1,4.346-69.8Zm1.7-.016a2.939,2.939,0,0,0,.256,1.49.617.617,0,0,0,.535.279.624.624,0,0,0,.543-.279,3.019,3.019,0,0,0,.248-1.49A2.969,2.969,0,0,0,7.38-71.3a.619.619,0,0,0-.543-.287.617.617,0,0,0-.535.279A2.94,2.94,0,0,0,6.045-69.815ZM8.5-60.8H6.883l6.06-12h1.567Zm3.523-2.987a3.281,3.281,0,0,1,.671-2.266,2.358,2.358,0,0,1,1.835-.737,2.367,2.367,0,0,1,1.843.737,3.281,3.281,0,0,1,.671,2.266,3.294,3.294,0,0,1-.671,2.274,2.339,2.339,0,0,1-1.82.737,2.387,2.387,0,0,1-1.858-.737A3.294,3.294,0,0,1,12.02-63.786Zm1.7-.008a2.892,2.892,0,0,0,.256,1.482.612.612,0,0,0,.535.287.6.6,0,0,0,.535-.279,2.94,2.94,0,0,0,.256-1.49,3.019,3.019,0,0,0-.248-1.49.624.624,0,0,0-.543-.279.6.6,0,0,0-.535.279A2.94,2.94,0,0,0,13.719-63.794Z" transform="translate(928.116 1195.803)" fill="#303030" stroke="#303030" stroke-width="0.5"/>
    </g>
  </g>
</svg>
